<svg width="196" height="54" viewBox="0 0 196 54" fill="none" xmlns="http://www.w3.org/2000/svg">
<g clip-path="url(#clip0_1_304)">
<path d="M58.7683 7.41769H75.8381C80.1476 7.41769 83.4714 8.83483 85.5469 11.347C87.345 13.4727 88.4348 16.094 88.4348 19.3098C88.4348 26.782 84.0708 31.3109 75.2932 31.3109H64.3856V48.0044H58.7683V7.41769ZM64.3856 26.782H74.7483C80.2566 26.782 82.872 23.9972 82.872 19.4733C82.872 14.9493 79.9841 12.2736 74.9662 12.2736H64.3856V26.7869V26.782Z" fill="white"/>
<path d="M89.163 33.387C89.163 24.8743 94.6713 18.0017 103.503 18.0017C112.335 18.0017 117.735 24.8743 117.735 33.387C117.735 41.8998 112.335 48.8269 103.503 48.8269C94.6713 48.8269 89.163 41.9543 89.163 33.387ZM112.558 33.387C112.558 27.0595 109.448 22.04 103.449 22.04C97.4502 22.04 94.3394 27.0595 94.3394 33.387C94.3394 39.7146 97.4502 44.6796 103.449 44.6796C109.448 44.6796 112.558 39.7146 112.558 33.387Z" fill="white"/>
<path d="M121.311 7.41769H126.384V48.0044H121.311V7.41769Z" fill="white"/>
<path d="M131.283 7.41769H136.355V48.0044H131.283V7.41769Z" fill="white"/>
<path d="M160.107 48.0044V43.9115H159.998C157.927 46.8003 155.362 48.6585 151.161 48.6585C145.108 48.6585 141.234 45.0016 141.234 38.8921V18.7053H146.307V38.6196C146.307 42.3309 148.65 44.5111 152.687 44.5111C157.16 44.5111 160.048 41.0723 160.048 36.5484V18.7102H165.12V48.0044H160.102H160.107Z" fill="white"/>
<path d="M178.876 32.6735L169.112 18.7102H175.002L179.366 25.4193C180.292 26.891 181.709 29.4577 181.709 29.4577H181.818C181.818 29.4577 183.289 26.8414 184.216 25.4193L188.743 18.7102H194.251L184.706 32.183L195.995 48.0044H190.105L184.488 39.7146C183.398 38.134 181.818 35.2947 181.818 35.2947H181.709C181.709 35.2947 180.129 38.129 179.089 39.7146L173.526 48.0044H167.854L178.871 32.6735H178.876Z" fill="white"/>
<path d="M22.6771 3.64195V22.5157L22.6474 22.5355L4.4928 12.1002V19.3445L12.9336 24.1954C16.1434 25.9892 20.1855 26.0982 23.5984 24.1211C27.0114 22.1441 28.9334 18.5863 28.973 14.9097V0.00495529L22.682 3.64691L22.6771 3.64195Z" fill="white"/>
<path d="M48.1034 37.2272L31.7668 27.7829V27.7433L49.8916 17.2485L43.6205 13.6214L35.1995 18.4972C32.0392 20.3801 29.9241 23.8288 29.9241 27.773C29.9241 31.7172 32.0442 35.1659 35.2045 37.0439L48.1034 44.5012V37.2272Z" fill="white"/>
<path d="M6.30085 42.4746L22.6375 33.0303L22.6722 33.0501L22.7167 54L28.9879 50.3729L28.9681 40.6412C28.9185 36.9646 26.9867 33.4069 23.5687 31.4397C20.1508 29.4726 16.1088 29.5865 12.9039 31.3902L0 38.8475L6.30085 42.4746Z" fill="white"/>
</g>
<defs>
<clipPath id="clip0_1_304">
<rect width="196" height="54" fill="white"/>
</clipPath>
</defs>
</svg>
