<svg width="120" height="130" viewBox="0 0 120 130" fill="none" xmlns="http://www.w3.org/2000/svg">
<g clip-path="url(#clip0_1_314)">
<path d="M54.5433 8.76764V54.2044L54.4718 54.2521L10.8062 29.1301V46.57L31.108 58.2483C38.8284 62.5665 48.5504 62.8289 56.7593 58.0693C64.9682 53.3098 69.5909 44.7449 69.6863 35.8937V0.0119019L54.5552 8.77956L54.5433 8.76764Z" fill="white"/>
<path d="M115.699 89.621L76.4059 66.8847V66.7893L120 41.5241L104.917 32.7922L84.6624 44.5302C77.0612 49.0631 71.9738 57.3655 71.9738 66.8609C71.9738 76.3562 77.0731 84.6586 84.6743 89.1796L115.699 107.132V89.621Z" fill="white"/>
<path d="M15.1549 102.254L54.448 79.5173L54.5314 79.565L54.6386 130L69.722 121.268L69.6743 97.84C69.5552 88.9888 64.9087 80.4239 56.6879 75.6882C48.467 70.9525 38.745 71.2268 31.0365 75.5689L0 93.5217L15.1549 102.254Z" fill="white"/>
</g>
<defs>
<clipPath id="clip0_1_314">
<rect width="120" height="130" fill="white"/>
</clipPath>
</defs>
</svg>
